<svg xmlns="http://www.w3.org/2000/svg" width="25.376" height="20.374" viewBox="0 0 25.376 20.374"><path d="M37.331,105.055,45.987,96.4a1.521,1.521,0,0,1,2.158,0l1.438,1.438a1.521,1.521,0,0,1,0,2.158l-6.129,6.142,6.136,6.136a1.521,1.521,0,0,1,0,2.158l-1.438,1.445a1.521,1.521,0,0,1-2.158,0l-8.656-8.656a1.523,1.523,0,0,1-.006-2.164ZM25.11,107.219l8.656,8.656a1.521,1.521,0,0,0,2.158,0l1.438-1.438a1.521,1.521,0,0,0,0-2.158l-6.129-6.142L37.369,100a1.521,1.521,0,0,0,0-2.158L35.931,96.4a1.521,1.521,0,0,0-2.158,0l-8.656,8.656A1.523,1.523,0,0,0,25.11,107.219Z" transform="translate(-24.662 -95.95)" fill="#dbdbdb"/></svg>