<svg xmlns="http://www.w3.org/2000/svg" width="21.625" height="24.715" viewBox="0 0 21.625 24.715"><g transform="translate(8922.869 11730.795)"><path d="M21.625,17.378V1.159A1.156,1.156,0,0,0,20.467,0H4.634A4.635,4.635,0,0,0,0,4.634V20.081a4.635,4.635,0,0,0,4.634,4.634H20.467a1.156,1.156,0,0,0,1.159-1.159v-.772a1.168,1.168,0,0,0-.43-.9,10.765,10.765,0,0,1,0-3.606,1.15,1.15,0,0,0,.43-.9ZM6.179,6.468a.29.29,0,0,1,.29-.29H16.7a.29.29,0,0,1,.29.29v.965a.29.29,0,0,1-.29.29H6.468a.29.29,0,0,1-.29-.29Zm0,3.089a.29.29,0,0,1,.29-.29H16.7a.29.29,0,0,1,.29.29v.965a.29.29,0,0,1-.29.29H6.468a.29.29,0,0,1-.29-.29ZM18.411,21.625H4.634a1.545,1.545,0,0,1,0-3.089H18.411A17.378,17.378,0,0,0,18.411,21.625Z" transform="translate(-8922.869 -11730.795)" fill="#dbdbdb"/></g></svg>