<svg xmlns="http://www.w3.org/2000/svg" width="20.924" height="27.898" viewBox="0 0 20.924 27.898"><path d="M12.206,7.411V0H1.308A1.3,1.3,0,0,0,0,1.308V26.591A1.3,1.3,0,0,0,1.308,27.9H19.616a1.3,1.3,0,0,0,1.308-1.308V8.718H13.513A1.312,1.312,0,0,1,12.206,7.411ZM15.693,20.27a.656.656,0,0,1-.654.654H5.885a.656.656,0,0,1-.654-.654v-.436a.656.656,0,0,1,.654-.654h9.154a.656.656,0,0,1,.654.654Zm0-3.487a.656.656,0,0,1-.654.654H5.885a.656.656,0,0,1-.654-.654v-.436a.656.656,0,0,1,.654-.654h9.154a.656.656,0,0,1,.654.654Zm0-3.923V13.3a.656.656,0,0,1-.654.654H5.885a.656.656,0,0,1-.654-.654v-.436a.656.656,0,0,1,.654-.654h9.154A.656.656,0,0,1,15.693,12.859Zm5.231-6.217v.332H13.949V0h.332a1.307,1.307,0,0,1,.926.381l5.334,5.34A1.3,1.3,0,0,1,20.924,6.642Z" fill="#dbdbdb"/></svg>